<svg width="33" height="32" viewBox="0 0 33 32" fill="none" xmlns="http://www.w3.org/2000/svg">
<g clip-path="url(#clip0_213_3490)">
<path d="M28.05 0H4.95C2.21619 0 0 2.14903 0 4.8V27.2C0 29.851 2.21619 32 4.95 32H28.05C30.7838 32 33 29.851 33 27.2V4.8C33 2.14903 30.7838 0 28.05 0Z" fill="#1877F2"/>
<path d="M22.9195 20.625L23.6543 16H19.0781V13C19.0781 11.7375 19.7162 10.5 21.7658 10.5H23.8477V6.5625C23.8477 6.5625 21.9592 6.25 20.1545 6.25C16.384 6.25 13.9219 8.4625 13.9219 12.475V16H9.73242V20.625H13.9219V32H19.0781V20.625H22.9195Z" fill="white"/>
</g>
<defs>
<clipPath id="clip0_213_3490">
<rect width="33" height="32" fill="white"/>
</clipPath>
</defs>
</svg>
