<svg width="33" height="32" viewBox="0 0 33 32" fill="none" xmlns="http://www.w3.org/2000/svg">
<g clip-path="url(#clip0_213_3481)">
<path d="M25.9286 0H7.07143C3.16599 0 0 3.07005 0 6.85714V25.1429C0 28.93 3.16599 32 7.07143 32H25.9286C29.834 32 33 28.93 33 25.1429V6.85714C33 3.07005 29.834 0 25.9286 0Z" fill="url(#paint0_radial_213_3481)"/>
<path d="M25.9286 0H7.07143C3.16599 0 0 3.07005 0 6.85714V25.1429C0 28.93 3.16599 32 7.07143 32H25.9286C29.834 32 33 28.93 33 25.1429V6.85714C33 3.07005 29.834 0 25.9286 0Z" fill="url(#paint1_radial_213_3481)"/>
<path d="M25.9286 0H7.07143C3.16599 0 0 3.07005 0 6.85714V25.1429C0 28.93 3.16599 32 7.07143 32H25.9286C29.834 32 33 28.93 33 25.1429V6.85714C33 3.07005 29.834 0 25.9286 0Z" fill="url(#paint2_radial_213_3481)"/>
<path d="M24.7491 9.84615C24.7491 10.8657 23.8967 11.6923 22.8453 11.6923C21.7938 11.6923 20.9414 10.8657 20.9414 9.84615C20.9414 8.82655 21.7938 8 22.8453 8C23.8967 8 24.7491 8.82655 24.7491 9.84615Z" fill="white"/>
<path fill-rule="evenodd" clip-rule="evenodd" d="M16.5006 21.5383C19.655 21.5383 22.2121 19.0587 22.2121 15.9999C22.2121 12.9411 19.655 10.4614 16.5006 10.4614C13.3462 10.4614 10.7891 12.9411 10.7891 15.9999C10.7891 19.0587 13.3462 21.5383 16.5006 21.5383ZM16.5006 19.323C18.3933 19.323 19.9275 17.8352 19.9275 15.9999C19.9275 14.1646 18.3933 12.6768 16.5006 12.6768C14.6079 12.6768 13.0737 14.1646 13.0737 15.9999C13.0737 17.8352 14.6079 19.323 16.5006 19.323Z" fill="white"/>
<path fill-rule="evenodd" clip-rule="evenodd" d="M4.44141 15.5322C4.44141 11.6033 4.44141 9.63873 5.22993 8.13809C5.92354 6.81805 7.03029 5.74484 8.39158 5.07225C9.93911 4.30762 11.965 4.30762 16.0168 4.30762H16.9814C21.0332 4.30762 23.0591 4.30762 24.6066 5.07225C25.9679 5.74484 27.0747 6.81805 27.7682 8.13809C28.5568 9.63873 28.5568 11.6033 28.5568 15.5322V16.4676C28.5568 20.3966 28.5568 22.3611 27.7682 23.8617C27.0747 25.1818 25.9679 26.255 24.6066 26.9276C23.0591 27.6922 21.0332 27.6922 16.9814 27.6922H16.0168C11.965 27.6922 9.93911 27.6922 8.39158 26.9276C7.03029 26.255 5.92354 25.1818 5.22993 23.8617C4.44141 22.3611 4.44141 20.3966 4.44141 16.4676V15.5322ZM16.0168 6.64608H16.9814C19.0471 6.64608 20.4513 6.6479 21.5367 6.73389C22.594 6.81765 23.1347 6.96948 23.5119 7.15583C24.4193 7.60423 25.1571 8.3197 25.6195 9.19968C25.8117 9.56541 25.9684 10.0897 26.0547 11.115C26.1433 12.1675 26.1453 13.5291 26.1453 15.5322V16.4676C26.1453 18.4707 26.1433 19.8323 26.0547 20.8849C25.9684 21.9102 25.8117 22.4344 25.6195 22.8002C25.1571 23.6801 24.4193 24.3956 23.5119 24.844C23.1347 25.0304 22.594 25.1822 21.5367 25.266C20.4513 25.3519 19.0471 25.3538 16.9814 25.3538H16.0168C13.9511 25.3538 12.5469 25.3519 11.4615 25.266C10.4042 25.1822 9.86351 25.0304 9.48634 24.844C8.57887 24.3956 7.84104 23.6801 7.37862 22.8002C7.18645 22.4344 7.02988 21.9102 6.9435 20.8849C6.85483 19.8323 6.85294 18.4707 6.85294 16.4676V15.5322C6.85294 13.5291 6.85483 12.1675 6.9435 11.115C7.02988 10.0897 7.18645 9.56541 7.37862 9.19968C7.84104 8.3197 8.57887 7.60423 9.48634 7.15583C9.86351 6.96948 10.4042 6.81765 11.4615 6.73389C12.5469 6.6479 13.9511 6.64608 16.0168 6.64608Z" fill="white"/>
</g>
<defs>
<radialGradient id="paint0_radial_213_3481" cx="0" cy="0" r="1" gradientUnits="userSpaceOnUse" gradientTransform="translate(11.7857 24) rotate(-54.5471) scale(29.4626 29.7732)">
<stop stop-color="#B13589"/>
<stop offset="0.79309" stop-color="#C62F94"/>
<stop offset="1" stop-color="#8A3AC8"/>
</radialGradient>
<radialGradient id="paint1_radial_213_3481" cx="0" cy="0" r="1" gradientUnits="userSpaceOnUse" gradientTransform="translate(10.6071 33.1429) rotate(-64.457) scale(25.9664 26.4807)">
<stop stop-color="#E0E8B7"/>
<stop offset="0.444662" stop-color="#FB8A2E"/>
<stop offset="0.71474" stop-color="#E2425C"/>
<stop offset="1" stop-color="#E2425C" stop-opacity="0"/>
</radialGradient>
<radialGradient id="paint2_radial_213_3481" cx="0" cy="0" r="1" gradientUnits="userSpaceOnUse" gradientTransform="translate(-1.76786 1.14286) rotate(-7.88688) scale(45.8083 9.51238)">
<stop offset="0.156701" stop-color="#406ADC"/>
<stop offset="0.467799" stop-color="#6A45BE"/>
<stop offset="1" stop-color="#6A45BE" stop-opacity="0"/>
</radialGradient>
<clipPath id="clip0_213_3481">
<rect width="33" height="32" fill="white"/>
</clipPath>
</defs>
</svg>
