<svg width="31" height="36" viewBox="0 0 31 36" fill="none" xmlns="http://www.w3.org/2000/svg">
<path d="M16.9929 2V23.821C16.9929 24.9768 16.5194 26.0853 15.6765 26.9026C14.8336 27.7199 13.6903 28.179 12.4982 28.179C11.3062 28.179 10.1629 27.7199 9.32 26.9026C8.47708 26.0853 8.00353 24.9768 8.00353 23.821C8.00352 22.6637 8.47656 21.5537 9.31903 20.7339C10.1615 19.9142 11.3047 19.4516 12.4982 19.4475V13.642C9.71393 13.642 7.04366 14.7144 5.07486 16.6233C3.10606 18.5323 2 21.1213 2 23.821C2 26.5206 3.10606 29.1097 5.07486 31.0186C7.04366 32.9276 9.71393 34 12.4982 34C15.2825 34 17.9528 32.9276 19.9216 31.0186C21.8904 29.1097 22.9965 26.5206 22.9965 23.821V13.642L23.3141 13.796C25.0817 14.6451 27.0274 15.0878 29 15.0895V9.26853H28.8253C27.1598 8.86623 25.6811 7.93507 24.6248 6.62339C23.5684 5.31172 22.9952 3.69499 22.9965 2.0308H16.9929V2Z" stroke="white" stroke-width="3" stroke-miterlimit="10"/>
</svg>
