<?xml version="1.0" encoding="UTF-8"?>
<!DOCTYPE svg PUBLIC "-//W3C//DTD SVG 1.1//EN" "http://www.w3.org/Graphics/SVG/1.1/DTD/svg11.dtd">
<svg xmlns="http://www.w3.org/2000/svg" version="1.1" width="32px" height="32px" style="shape-rendering:geometricPrecision; text-rendering:geometricPrecision; image-rendering:optimizeQuality; fill-rule:evenodd; clip-rule:evenodd" xmlns:xlink="http://www.w3.org/1999/xlink">
<g><path style="opacity:1" fill="#040404" d="M 0.5,-0.5 C 10.5,-0.5 20.5,-0.5 30.5,-0.5C 30.5,0.166667 30.8333,0.5 31.5,0.5C 31.5,10.5 31.5,20.5 31.5,30.5C 30.8333,30.5 30.5,30.8333 30.5,31.5C 20.5,31.5 10.5,31.5 0.5,31.5C 0.5,30.8333 0.166667,30.5 -0.5,30.5C -0.5,20.5 -0.5,10.5 -0.5,0.5C 0.166667,0.5 0.5,0.166667 0.5,-0.5 Z"/></g>
<g><path style="opacity:1" fill="#767676" d="M 11.5,5.5 C 9.26465,5.20528 7.26465,5.53862 5.5,6.5C 4.95691,6.44001 4.62358,6.10667 4.5,5.5C 6.97322,4.20308 9.30655,4.20308 11.5,5.5 Z"/></g>
<g><path style="opacity:1" fill="#d6d6d6" d="M 11.5,5.5 C 13.3247,7.80309 15.1581,10.1364 17,12.5C 18.7146,10.2406 20.5479,8.07389 22.5,6C 23.1667,5.33333 23.8333,5.33333 24.5,6C 22.5394,8.96276 20.206,11.6294 17.5,14C 20.3826,17.3765 23.0493,20.8765 25.5,24.5C 23.7354,25.4614 21.7354,25.7947 19.5,25.5C 17.7345,22.9714 15.7345,20.6381 13.5,18.5C 11.2919,21.0536 8.95855,23.5536 6.5,26C 5.66828,26.6877 5.00161,26.521 4.5,25.5C 7.13794,22.5256 9.80461,19.5256 12.5,16.5C 10.157,13.1376 7.82362,9.80428 5.5,6.5C 7.26465,5.53862 9.26465,5.20528 11.5,5.5 Z"/></g>
<g><path style="opacity:1" fill="#191919" d="M 7.5,7.5 C 9.15344,6.20056 10.6534,6.5339 12,8.5C 15.8333,13.6667 19.6667,18.8333 23.5,24C 21.6332,24.7112 20.1332,24.2112 19,22.5C 15.3031,17.3149 11.4698,12.3149 7.5,7.5 Z"/></g>
<g><path style="opacity:1" fill="#707070" d="M 25.5,24.5 C 26.0431,24.56 26.3764,24.8933 26.5,25.5C 24.0268,26.7969 21.6934,26.7969 19.5,25.5C 21.7354,25.7947 23.7354,25.4614 25.5,24.5 Z"/></g>
</svg>
