<svg width="43" height="30" viewBox="0 0 43 30" fill="none" xmlns="http://www.w3.org/2000/svg">
<path fill-rule="evenodd" clip-rule="evenodd" d="M17.0602 20.5323L17.0589 8.54801L28.677 14.5608L17.0602 20.5323ZM42.57 6.47132C42.57 6.47132 42.1494 3.53223 40.8607 2.23797C39.2254 0.538499 37.3925 0.530502 36.5527 0.431866C30.5354 5.29654e-08 21.5094 0 21.5094 0H21.4906C21.4906 0 12.4646 5.29654e-08 6.44731 0.431866C5.60612 0.530502 3.77459 0.538499 2.13791 2.23797C0.84925 3.53223 0.43 6.47132 0.43 6.47132C0.43 6.47132 0 9.92358 0 13.3745V16.6108C0 20.0631 0.43 23.514 0.43 23.514C0.43 23.514 0.84925 26.4531 2.13791 27.7474C3.77459 29.4468 5.92325 29.3935 6.88 29.5708C10.32 29.8987 21.5 30 21.5 30C21.5 30 30.5354 29.9867 36.5527 29.5548C37.3925 29.4548 39.2254 29.4468 40.8607 27.7474C42.1494 26.4531 42.57 23.514 42.57 23.514C42.57 23.514 43 20.0631 43 16.6108V13.3745C43 9.92358 42.57 6.47132 42.57 6.47132Z" fill="white"/>
</svg>
